<?xml version="1.0" encoding="UTF-8" standalone="no"?><svg xmlns="http://www.w3.org/2000/svg" xmlns:xlink="http://www.w3.org/1999/xlink" fill="#d4bdad" height="281.8" preserveAspectRatio="xMidYMid meet" version="1" viewBox="-0.7 62.0 382.0 281.8" width="382" zoomAndPan="magnify"><g id="change1_1"><path d="m102.71 568.85c-0.85582-63.089-4.2793-8.8032 33.746-102.34 27.51-63.578-0.36679-46.461 141.95-48.784 126.67 2.5676 101.11-15.772 130.21 51.719 36.435 86.442 33.623 41.204 33.379 97.568-1.3449 61.867 21.519 45.972-170.19 48.051-190.25-2.5676-167.75 13.572-169.09-46.217zm38.514-60.889 26.043-60.155c4.859-10.685 3.3087-9.1081 14.672-9.17l182.08-0.01961c9.8568 0.03621 8.4107-0.6038 12.471 8.8032l25.898 59.808-261.16 0.73359zm-18.625 114.01 48.703-0.10869c-0.14943 61.147 4.9178 57.737-21.641 58.131-31.626-0.12227-26.627 3.0702-27.062-58.022zm250.81 0.43472h48.784c-0.32605 61.242 4.1299 57.058-23.475 57.221-28.542-0.38039-24.915 4.1299-25.309-57.221z" fill="inherit" fill-rule="evenodd" transform="translate(-82.242 -339.99)"/></g></svg>